# xmcd
#
# Track frame offsets:
#	150
#	18552
#	32142
#	44587
#	58937
#	69422
#	88882
#	101505
#	115832
#	126265
#	137610
#	150700
#	161865
#	175900
#	195465
#	206235
#
# Disc length: 2855 seconds
#
# Revision: 0
# Processed by: cddbd v1.5.2PL0 Copyright (c) Steve Scherf et al.
# Submitted via: dBpowerAMP V4.0
#
DISCID=eb0b2510
DTITLE=Country Road - Country Road - CD3
DYEAR=1900
DGENRE=Country
TTITLE0=Kenny Rogers - The king of Dak Street
TTITLE1=Tina Turner - Freedom to stay
TTITLE2=Frankie Laine - Higf noon
TTITLE3=Jim Reeves - Highway to nowhere
TTITLE4=Patsy Cline - Honkey tonk merry go round
TTITLE5=Tina Turner - Lovin him was easier
TTITLE6=Kitty Wells - Making believe
TTITLE7=Federation - Meet me on the corner
TTITLE8=Gerald W Group - Money
TTITLE9=Rick elson - Poor little fool
TTITLE10=Kenny Rogers - Ruby don't take your love to town
TTITLE11=Ferlin Hisky - San Antonio Rose
TTITLE12=Kenny Rogers - Sunshine
TTITLE13=Federation - Don't step out of line
TTITLE14=Freddy Fender - The wild side of live
TTITLE15=Jim Reeves - Till the end of the world
EXTD=
EXTT0=
EXTT1=
EXTT2=
EXTT3=
EXTT4=
EXTT5=
EXTT6=
EXTT7=
EXTT8=
EXTT9=
EXTT10=
EXTT11=
EXTT12=
EXTT13=
EXTT14=
EXTT15=
PLAYORDER=
